<?xml version="1.0" standalone="no"?>
<!DOCTYPE svg PUBLIC "-//W3C//DTD SVG 20010904//EN" "http://www.w3.org/TR/2001/REC-SVG-20010904/DTD/svg10.dtd">
<svg version="1.0" xmlns="http://www.w3.org/2000/svg" width="1024.000000pt" height="1024.000000pt"
  viewBox="0 0 1024.000000 1024.000000" preserveAspectRatio="xMidYMid meet">

  <g transform="translate(0.000000,1024.000000) scale(0.100000,-0.100000)" fill="#000000" stroke="none">
    <path d="M0 5120 l0 -5120 2398 2 c1318 0 2381 3 2362 5 -19 1 -87 8 -150 14
-842 78 -1716 397 -2420 885 -694 481 -1261 1122 -1640 1857 l-65 126 19 33
c187 328 453 528 697 528 227 -1 428 -129 675 -430 193 -237 358 -370 529
-427 68 -23 98 -27 200 -27 131 -1 198 15 314 74 140 70 316 232 430 395 163
233 410 422 616 471 102 23 248 15 339 -20 195 -74 343 -212 546 -507 35 -52
114 -144 175 -205 98 -98 121 -116 205 -157 113 -56 195 -72 288 -57 224 37
384 183 602 552 76 129 227 282 325 329 66 32 76 34 175 34 103 0 106 -1 180
-40 111 -59 212 -165 348 -367 213 -314 374 -428 612 -428 248 0 536 176 758
463 288 374 626 467 939 260 115 -75 343 -321 343 -368 0 -22 -170 -352 -250
-485 -388 -647 -886 -1179 -1500 -1604 -389 -270 -878 -511 -1335 -659 -345
-112 -740 -194 -1085 -226 -63 -6 -131 -13 -150 -14 -19 -2 1044 -5 2363 -5
l2397 -2 0 5120 0 5120 -5120 0 -5120 0 0 -5120z m5715 848 c185 -60 314 -217
345 -417 7 -44 10 -218 8 -473 -3 -391 -4 -405 -26 -467 -58 -161 -173 -276
-332 -333 l-65 -23 -784 -3 -784 -3 6 377 c4 208 7 489 7 626 l0 248 168 0
169 0 6 -247 c4 -137 7 -339 7 -451 l0 -202 588 2 589 3 36 28 c64 49 71 72
75 257 2 91 -1 272 -5 402 -10 271 -11 274 -99 318 -48 25 -52 25 -304 25
-140 0 -435 1 -655 3 l-400 2 -85 168 c-47 92 -86 170 -88 175 -2 4 348 7 777
7 772 0 781 0 846 -22z m3233 6 c101 -21 163 -55 243 -134 117 -115 173 -278
151 -433 -13 -87 -51 -180 -99 -244 l-32 -42 42 -63 c54 -80 77 -152 84 -253
17 -259 -157 -486 -412 -540 -57 -12 -172 -15 -607 -15 -296 0 -538 2 -538 5
0 3 38 82 85 175 l85 170 455 0 c499 0 498 0 548 59 70 84 51 203 -41 250 -35
17 -75 19 -624 22 l-587 4 -34 -33 c-58 -56 -62 -84 -59 -384 l4 -268 -177 0
-177 0 4 308 c3 302 4 308 30 379 54 151 170 266 321 322 l72 26 590 5 c634 5
619 4 667 57 24 26 48 87 48 120 -1 49 -36 110 -81 140 l-43 28 -713 3 -714 3
-84 170 c-47 93 -85 171 -85 174 0 3 360 5 800 5 692 0 811 -2 878 -16z
m-7333 -382 c215 -213 487 -488 605 -612 118 -124 218 -226 222 -228 10 -4 10
265 1 611 l-6 257 -171 0 -171 1 -81 179 -82 180 436 0 435 0 -6 -457 c-4
-252 -7 -641 -7 -865 l0 -408 -168 0 -167 0 -561 563 c-309 309 -584 586 -611
616 l-51 55 6 -220 c2 -120 1 -398 -3 -616 l-7 -398 -168 0 -167 0 -7 163 c-4
89 -4 478 0 865 l7 702 166 0 166 -1 390 -387z m2255 -537 l0 -175 -390 0
-390 0 0 175 0 175 390 0 390 0 0 -175z m3200 0 l0 -175 -390 0 -390 0 0 175
0 175 390 0 390 0 0 -175z" />
  </g>
</svg>